# xmcd
#
# Track frame offsets: 
#        150
#        10396
#        22856
#        37369
#        50021
#        63640
#        82180
#        94377
#        108164
#        124582
#        143654
#        158529
#        171524
#        196990
#
# Disc length: 2799 seconds
#
# Revision: 0
# Processed by: cddbd v1.5.2PL0 Copyright (c) Steve Scherf et al.
# Submitted via: ExactAudioCopy v1.3
#
DISCID=c10aed0e
DTITLE=Archie Edwards and Dr. Ross - Piedmont Blues Meets Mississippi De
DTITLE=lta Blues
DYEAR=2019
DGENRE=Blues
TTITLE0=Archie Edwards - Little Girl
TTITLE1=Dr. Ross - Biscuit Baking Woman
TTITLE2=Archie Edwards - Pittsburgh Blues
TTITLE3=Archie Edwards - She’s Gone and Left Me
TTITLE4=Dr. Ross - Got Something to Tell You
TTITLE5=Dr. Ross - Chicago Breakdown
TTITLE6=Archie Edwards - Meet Me in the Bottom
TTITLE7=Archie Edwards - The Road Is Rough and Rocky
TTITLE8=Dr. Ross - Good Morning Little Schoolgirl
TTITLE9=Archie Edwards - Bear Cat Mama
TTITLE10=Dr. Ross - Baby Please Don’t Go
TTITLE11=Archie Edwards - Baby Please Give Me a Break
TTITLE12=Dr. Ross - My Little Woman
TTITLE13=Archie Edwards - Goin’ up the Country
EXTD=
EXTT0=
EXTT1=
EXTT2=
EXTT3=
EXTT4=
EXTT5=
EXTT6=
EXTT7=
EXTT8=
EXTT9=
EXTT10=
EXTT11=
EXTT12=
EXTT13=
PLAYORDER=
